<?xml version="1.0" encoding="utf-8"?>
<!-- Generator: Adobe Illustrator 16.0.0, SVG Export Plug-In . SVG Version: 6.00 Build 0)  -->
<!DOCTYPE svg PUBLIC "-//W3C//DTD SVG 1.1//EN" "http://www.w3.org/Graphics/SVG/1.1/DTD/svg11.dtd">
<svg version="1.1" id="Layer_1" xmlns="http://www.w3.org/2000/svg" xmlns:xlink="http://www.w3.org/1999/xlink" x="0px" y="0px"
	 width="141.73px" height="29.625px" viewBox="0 0 141.73 29.625" enable-background="new 0 0 141.73 29.625" xml:space="preserve">
<g>
	<path fill-rule="evenodd" clip-rule="evenodd" fill="#FFC716" d="M18.514,21.14c0.363-0.362,0.723-0.729,1.05-1.125
		c3.777-4.587,2.783-11.529-2.136-14.873C13.78,2.66,8.931,2.78,5.475,5.438C1.95,8.149,0.521,12.746,2.027,16.912
		c1.232,3.402,3.518,5.674,7.263,6.172c0.033,0.004,0.066,0.028,0.15,0.064c-0.253,0.221-0.472,0.429-0.71,0.608
		c-0.232,0.173-0.269,0.294-0.035,0.523c1.04,1.012,2.063,2.037,3.079,3.075c0.213,0.219,0.326,0.21,0.537-0.003
		C14.373,25.275,16.446,23.209,18.514,21.14z"/>
</g>
<g>
	<path fill-rule="evenodd" clip-rule="evenodd" fill="#262626" d="M37.795,10.73c-1.107-1.515-3.534-2.303-5.616-0.75
		c-0.124,0.092-0.191,0.086-0.315-0.001c-1.042-0.752-1.572-1.047-3.159-0.699c-0.232,0.087-0.431,0.202-0.612,0.34
		c0-0.07,0.001-0.142,0.001-0.211c-0.001-0.316,0.035-0.268-0.276-0.27c-0.689-0.002-1.378,0.003-2.068-0.003
		c-0.139-0.002-0.172,0.04-0.172,0.179c0.006,1.635,0.001,3.306,0.006,4.93c-0.004,1.591,0,3.228-0.006,4.826
		c0,0.136,0.033,0.179,0.172,0.177c0.689-0.008,1.378-0.001,2.068-0.005c0.311,0,0.274,0.047,0.276-0.265
		c0.012-1.981,0.017-3.961,0.032-5.943c0.009-0.966,0.738-1.545,1.685-1.36c0.55,0.108,0.864,0.442,0.928,0.996
		c0.015,0.129,0.017,0.263,0.018,0.393c0.007,0.971,0.015,1.943,0.021,2.914c0.006,1.03,0.009,2.059,0.007,3.087
		c0,0.132,0.026,0.185,0.172,0.183c0.715-0.008,1.431-0.005,2.145-0.001c0.118,0.001,0.162-0.03,0.16-0.153
		c-0.009-0.281-0.003-0.563,0-0.848c0.009-1.755,0.012-3.514,0.032-5.272c0.01-0.891,0.795-1.497,1.647-1.293
		c0.602,0.143,0.996,0.669,0.999,1.339c0.004,2.007,0.012,4.017,0.011,6.021c0,0.165,0.042,0.209,0.205,0.207
		c0.682-0.009,1.365-0.008,2.048,0c0.152,0.002,0.201-0.038,0.199-0.193c-0.006-1.103-0.004-2.202-0.004-3.306
		c0.009,0,0.018,0,0.028,0c0-1.049,0.005-2.099-0.001-3.149C38.421,11.909,38.204,11.288,37.795,10.73z"/>
	<path fill-rule="evenodd" clip-rule="evenodd" fill="#262626" d="M49.654,13.781c-0.294-3.023-3.16-5.171-6.146-4.604
		c-2.214,0.421-3.925,2.218-4.211,4.427c-0.294,2.254,0.851,4.429,2.9,5.391c1.674,0.784,3.321,0.78,4.854-0.394
		c0.015-0.011,0.035-0.014,0.079-0.031c-0.012,0.17-0.015,0.325-0.036,0.477c-0.021,0.146,0.009,0.202,0.176,0.202
		c0.741-0.011,1.481-0.01,2.223,0c0.157,0,0.195-0.044,0.193-0.196c-0.004-1.494-0.001-2.991-0.003-4.487
		C49.683,14.305,49.68,14.042,49.654,13.781z M44.467,16.96c-1.469-0.003-2.651-1.182-2.653-2.651
		c-0.001-1.48,1.181-2.668,2.655-2.667c1.477,0.001,2.661,1.184,2.663,2.661C47.132,15.778,45.947,16.96,44.467,16.96z"/>
	<path fill-rule="evenodd" clip-rule="evenodd" fill="#262626" d="M71.909,13.281c-0.552-2.641-2.899-4.386-5.601-4.164
		c-2.567,0.212-4.642,2.393-4.728,4.971c-0.075,2.281,1.235,4.292,3.37,5.092c1.555,0.581,3.049,0.484,4.408-0.565
		c0.02-0.014,0.042-0.024,0.103-0.061c-0.015,0.193-0.02,0.352-0.042,0.507c-0.024,0.149,0.021,0.188,0.172,0.186
		c0.742-0.008,1.482-0.009,2.225,0.002c0.174,0.003,0.199-0.057,0.199-0.212c-0.006-1.559-0.005-3.12-0.003-4.681
		C72.012,13.994,71.983,13.635,71.909,13.281z M66.774,16.958c-1.464-0.007-2.64-1.199-2.634-2.667
		c0.009-1.48,1.195-2.656,2.675-2.649c1.472,0.007,2.648,1.199,2.643,2.679C69.452,15.795,68.259,16.966,66.774,16.958z"/>
	<path fill-rule="evenodd" clip-rule="evenodd" fill="#262626" d="M118.054,13.778c-0.307-3.176-3.459-5.355-6.531-4.512
		c-2.191,0.601-3.698,2.445-3.864,4.732c-0.157,2.143,1.101,4.222,3.137,5.088c1.619,0.688,3.193,0.637,4.642-0.474
		c0.02-0.016,0.041-0.025,0.077-0.047c0.025,0.184-0.002,0.346-0.024,0.504c-0.02,0.137,0.02,0.18,0.161,0.178
		c0.749-0.008,1.497-0.009,2.245,0.002c0.161,0,0.189-0.052,0.189-0.199c-0.006-1.501-0.003-3.003-0.003-4.505
		C118.082,14.288,118.079,14.033,118.054,13.778z M112.865,16.96c-1.47-0.003-2.652-1.184-2.652-2.652
		c-0.001-1.481,1.183-2.667,2.658-2.666c1.474,0.001,2.657,1.185,2.659,2.662C115.533,15.779,114.345,16.96,112.865,16.96z"/>
	<path fill-rule="evenodd" clip-rule="evenodd" fill="#262626" d="M60.72,13.05c-0.564-2.167-2.486-3.75-4.72-3.876
		c-1.131-0.065-2.133,0.259-3.006,1.047c0-0.088-0.004-0.159,0.002-0.227c0.069-1.01,0.025-2.021,0.054-3.03
		c0.004-0.155-0.04-0.201-0.195-0.198c-0.736,0.007-1.471,0.008-2.205,0c-0.154-0.002-0.183,0.046-0.183,0.188
		c0.003,4.042,0.004,8.083-0.001,12.124c0,0.146,0.041,0.187,0.187,0.187c0.715-0.009,1.43-0.005,2.145-0.005
		c0.25,0,0.25,0,0.249-0.258c-0.009-1.54-0.026-3.081-0.026-4.623c-0.001-1.81,1.694-3.085,3.414-2.576
		c1.122,0.333,1.885,1.357,1.902,2.565c0.023,1.562,0.036,3.122,0.044,4.683c0.001,0.178,0.053,0.216,0.22,0.214
		c0.715-0.009,1.43-0.009,2.146,0c0.165,0.002,0.207-0.042,0.204-0.208c-0.03-1.638-0.053-3.277-0.079-4.918
		C60.868,13.769,60.812,13.407,60.72,13.05z"/>
	<path fill-rule="evenodd" clip-rule="evenodd" fill="#262626" d="M104.466,9.937c-1.063-0.665-2.233-0.932-3.484-0.688
		c-0.716,0.14-1.366,0.435-1.915,0.988c0-0.107-0.005-0.183,0-0.259c0.07-1.001,0.028-2.006,0.054-3.009
		c0.006-0.146-0.023-0.206-0.189-0.205c-0.735,0.009-1.47,0.007-2.204,0.001c-0.144-0.001-0.188,0.033-0.188,0.184
		c0.004,4.041,0.004,8.082-0.001,12.121c0,0.163,0.056,0.193,0.202,0.191c0.701-0.007,1.404-0.001,2.105-0.003
		c0.308-0.001,0.273,0.035,0.273-0.272c-0.01-1.535-0.024-3.067-0.026-4.603c-0.004-1.818,1.706-3.098,3.428-2.578
		c1.111,0.336,1.873,1.357,1.889,2.556c0.021,1.567,0.036,3.137,0.045,4.703c0.001,0.148,0.034,0.199,0.194,0.199
		c0.723-0.009,1.442-0.012,2.165,0c0.184,0.003,0.212-0.058,0.209-0.222c-0.03-1.604-0.033-3.213-0.079-4.82
		C106.89,12.355,106.042,10.921,104.466,9.937z"/>
	<path fill-rule="evenodd" clip-rule="evenodd" fill="#262626" d="M140.206,13.172c-0.523-2.657-2.872-4.429-5.583-4.212
		c-3.05,0.244-5.249,3.146-4.653,6.145c0.49,2.459,2.495,4.169,5.001,4.239c1.399,0.038,2.621-0.433,3.657-1.383
		c0.103-0.094,0.105-0.143,0-0.238c-0.557-0.499-1.105-1.003-1.654-1.515c-0.085-0.08-0.133-0.08-0.225-0.004
		c-1.304,1.067-3.249,0.663-4.013-0.83c-0.111-0.22-0.111-0.22,0.127-0.22c1.2,0,2.401,0,3.602,0c1.215,0,2.427,0,3.642-0.002
		c0.081,0,0.193,0.044,0.191-0.117C140.29,14.414,140.326,13.788,140.206,13.172z M137.408,13.385c-0.782,0.001-1.562,0-2.343,0
		c-0.774,0-1.546-0.004-2.323,0.004c-0.169,0.001-0.214-0.025-0.149-0.2c0.387-1.011,1.376-1.699,2.47-1.704
		c1.119-0.005,2.094,0.657,2.488,1.688C137.631,13.385,137.631,13.385,137.408,13.385z"/>
	<path fill-rule="evenodd" clip-rule="evenodd" fill="#262626" d="M89.005,13.183c-0.516-2.662-2.864-4.436-5.592-4.222
		c-3.031,0.238-5.236,3.146-4.648,6.133c0.484,2.455,2.47,4.164,4.972,4.248c1.415,0.049,2.65-0.425,3.692-1.388
		c0.094-0.083,0.108-0.128,0.005-0.222c-0.556-0.5-1.107-1.007-1.653-1.517c-0.091-0.082-0.142-0.088-0.241-0.006
		c-1.293,1.069-3.278,0.642-4.019-0.86c-0.094-0.189-0.089-0.195,0.127-0.195c1.208,0,2.416,0,3.623,0c0.432,0,0.865,0,1.299,0
		c0.781,0,1.562,0,2.342-0.001c0.088,0,0.188,0.029,0.185-0.125C89.088,14.413,89.123,13.793,89.005,13.183z M86.229,13.389
		c-0.786-0.007-1.573-0.004-2.361-0.004c-0.785,0-1.571-0.003-2.358,0.004c-0.155,0.001-0.172-0.039-0.126-0.176
		c0.361-1.017,1.379-1.726,2.491-1.728c1.122-0.001,2.114,0.689,2.488,1.719C86.418,13.356,86.39,13.391,86.229,13.389z"/>
	<path fill-rule="evenodd" clip-rule="evenodd" fill="#262626" d="M128.962,12.357c-0.298-1.174-0.882-2.154-1.995-2.718
		c-1.24-0.625-2.559-0.737-3.908-0.443c-0.673,0.146-1.249,0.489-1.737,1.003c0.01-0.236,0.012-0.472,0.034-0.707
		c0.014-0.142-0.033-0.176-0.17-0.176c-0.742,0.007-1.483,0.008-2.226,0c-0.159-0.002-0.192,0.049-0.192,0.198
		c-0.008,3.184,0.022,6.365,0.034,9.544c0.002,0.167,0.061,0.19,0.202,0.188c0.684-0.007,1.365-0.011,2.047,0.003
		c0.205,0.004,0.26-0.049,0.258-0.255c-0.001-1.699,0.002-3.396,0.019-5.096c0.007-0.8,0.363-1.429,1.044-1.852
		c0.814-0.506,1.693-0.557,2.596-0.293c0.814,0.235,1.33,0.778,1.561,1.594c0.083,0.299,0.11,0.604,0.113,0.914
		c0.014,1.595,0.033,3.188,0.043,4.783c0.001,0.162,0.046,0.205,0.208,0.203c0.702-0.009,1.404-0.009,2.105,0
		c0.158,0.002,0.211-0.028,0.21-0.2c-0.011-1.541-0.011-3.082-0.017-4.623C129.188,13.727,129.135,13.035,128.962,12.357z"/>
	<path fill-rule="evenodd" clip-rule="evenodd" fill="#262626" d="M95.436,16.686c-0.462-0.016-0.913-0.102-1.327-0.312
		c-0.739-0.379-1.169-0.949-1.126-1.819c0.019-0.38,0.003-0.761,0.003-1.142c0.016,0,0.032,0,0.049,0
		c0-0.485,0.008-0.97-0.003-1.456c-0.006-0.173,0.057-0.201,0.211-0.198c0.645,0.009,1.287,0,1.931,0.006
		c0.128,0.001,0.166-0.037,0.163-0.166c-0.012-0.669-0.022-1.338-0.022-2.007c0-0.159-0.055-0.194-0.204-0.191
		c-0.643,0.007-1.286-0.002-1.931,0.005c-0.149,0.002-0.199-0.034-0.197-0.193c0.008-0.767,0-1.536,0.006-2.302
		c0.002-0.156-0.031-0.218-0.204-0.216c-0.719,0.009-1.443,0.009-2.164,0c-0.166-0.001-0.208,0.051-0.205,0.212
		c0.015,0.755,0.011,1.509,0.027,2.264c0.004,0.188-0.058,0.23-0.229,0.223c-0.323-0.013-0.645,0-0.966-0.005
		c-0.114-0.002-0.162,0.024-0.161,0.152c0.003,0.688,0.005,1.377-0.001,2.066c-0.002,0.139,0.056,0.16,0.173,0.158
		c0.323-0.005,0.645,0.007,0.966-0.005c0.164-0.007,0.23,0.026,0.22,0.21c-0.015,0.314-0.003,0.629,0,0.944
		c0.011,0.826-0.028,1.654,0.116,2.474c0.208,1.177,0.708,2.193,1.692,2.917c0.964,0.712,2.086,0.904,3.251,0.938
		c0.13,0.007,0.111-0.078,0.111-0.153c0-0.742-0.003-1.481,0.003-2.222C95.618,16.725,95.569,16.69,95.436,16.686z"/>
	<path fill-rule="evenodd" clip-rule="evenodd" fill="#262626" d="M78.2,9.3c-0.15,0.011-0.302,0.011-0.45,0.025
		c-0.604,0.058-1.173,0.217-1.656,0.604c-0.26,0.207-0.444,0.479-0.649,0.753c0.021-0.385,0.033-0.771,0.063-1.156
		c0.014-0.158-0.03-0.2-0.188-0.195c-0.734,0.018-1.469,0.029-2.203,0.03c-0.166,0-0.206,0.046-0.206,0.208
		c-0.001,3.13-0.009,6.26-0.017,9.387c-0.001,0.051,0.005,0.105-0.001,0.157c-0.009,0.105,0.038,0.133,0.139,0.133
		c0.767-0.004,1.534-0.008,2.302,0.003c0.158,0,0.145-0.082,0.145-0.185c-0.004-1.232-0.007-2.464-0.01-3.698
		c-0.002-0.388-0.016-0.774,0.004-1.161c0.05-1.039,0.59-1.736,1.54-2.127c0.367-0.152,0.756-0.205,1.149-0.229
		c0.079-0.004,0.155,0.014,0.155-0.114c-0.004-0.774-0.003-1.548,0-2.321C78.316,9.328,78.283,9.295,78.2,9.3z"/>
</g>
</svg>
